<mxfile host="Electron" modified="2024-03-22T07:22:03.284Z" agent="Mozilla/5.0 (Windows NT 10.0; Win64; x64) AppleWebKit/537.36 (KHTML, like Gecko) draw.io/21.6.8 Chrome/114.0.5735.289 Electron/25.5.0 Safari/537.36" etag="q6-gvLD4dnh8G6v2WJOi" version="21.6.8" type="device">
  <diagram name="Page-1" id="e5sKFQ3b4mv5ZemjpLJF">
    <mxGraphModel dx="3010" dy="1390" grid="1" gridSize="10" guides="1" tooltips="1" connect="1" arrows="1" fold="1" page="1" pageScale="1" pageWidth="850" pageHeight="1100" math="0" shadow="0">
      <root>
        <mxCell id="0" />
        <mxCell id="1" parent="0" />
        <mxCell id="M3dNTcdWX4ZVkyAugn2l-14" style="edgeStyle=orthogonalEdgeStyle;rounded=0;orthogonalLoop=1;jettySize=auto;html=1;exitX=1;exitY=1;exitDx=0;exitDy=0;entryX=0.75;entryY=1;entryDx=0;entryDy=0;" parent="1" source="M3dNTcdWX4ZVkyAugn2l-1" target="M3dNTcdWX4ZVkyAugn2l-5" edge="1">
          <mxGeometry relative="1" as="geometry">
            <Array as="points">
              <mxPoint x="-462" y="270.12" />
              <mxPoint x="-200" y="270.12" />
            </Array>
          </mxGeometry>
        </mxCell>
        <mxCell id="M3dNTcdWX4ZVkyAugn2l-1" value="Register" style="ellipse;whiteSpace=wrap;html=1;aspect=fixed;" parent="1" vertex="1">
          <mxGeometry x="-530" y="190.12" width="80" height="80" as="geometry" />
        </mxCell>
        <mxCell id="M3dNTcdWX4ZVkyAugn2l-2" value="Blogger" style="rounded=0;whiteSpace=wrap;html=1;" parent="1" vertex="1">
          <mxGeometry x="-800" y="215.12" width="80" height="30" as="geometry" />
        </mxCell>
        <mxCell id="M3dNTcdWX4ZVkyAugn2l-12" style="edgeStyle=orthogonalEdgeStyle;rounded=0;orthogonalLoop=1;jettySize=auto;html=1;entryX=1;entryY=0;entryDx=0;entryDy=0;" parent="1" source="M3dNTcdWX4ZVkyAugn2l-5" target="M3dNTcdWX4ZVkyAugn2l-1" edge="1">
          <mxGeometry relative="1" as="geometry">
            <Array as="points">
              <mxPoint x="-210" y="202.12" />
            </Array>
          </mxGeometry>
        </mxCell>
        <mxCell id="M3dNTcdWX4ZVkyAugn2l-5" value="Modderator" style="rounded=0;whiteSpace=wrap;html=1;" parent="1" vertex="1">
          <mxGeometry x="-260" y="215.12" width="80" height="30" as="geometry" />
        </mxCell>
        <mxCell id="M3dNTcdWX4ZVkyAugn2l-6" value="" style="endArrow=classic;html=1;rounded=0;entryX=0;entryY=0;entryDx=0;entryDy=0;exitX=0.376;exitY=0.016;exitDx=0;exitDy=0;exitPerimeter=0;" parent="1" source="M3dNTcdWX4ZVkyAugn2l-2" target="M3dNTcdWX4ZVkyAugn2l-1" edge="1">
          <mxGeometry width="50" height="50" relative="1" as="geometry">
            <mxPoint x="-690" y="210.12" as="sourcePoint" />
            <mxPoint x="-420" y="190.12" as="targetPoint" />
            <Array as="points">
              <mxPoint x="-770" y="200.12" />
            </Array>
          </mxGeometry>
        </mxCell>
        <mxCell id="M3dNTcdWX4ZVkyAugn2l-7" value="Provide Username,password&lt;br&gt;,email and other relevant information" style="edgeLabel;html=1;align=center;verticalAlign=middle;resizable=0;points=[];" parent="M3dNTcdWX4ZVkyAugn2l-6" vertex="1" connectable="0">
          <mxGeometry x="0.0843" y="-1" relative="1" as="geometry">
            <mxPoint x="-6" y="-22" as="offset" />
          </mxGeometry>
        </mxCell>
        <mxCell id="M3dNTcdWX4ZVkyAugn2l-10" value="" style="endArrow=classic;html=1;rounded=0;entryX=0.375;entryY=1;entryDx=0;entryDy=0;entryPerimeter=0;exitX=0;exitY=1;exitDx=0;exitDy=0;" parent="1" source="M3dNTcdWX4ZVkyAugn2l-1" target="M3dNTcdWX4ZVkyAugn2l-2" edge="1">
          <mxGeometry width="50" height="50" relative="1" as="geometry">
            <mxPoint x="-526.98712393899" y="245.1199922101722" as="sourcePoint" />
            <mxPoint x="-660" y="299.89" as="targetPoint" />
            <Array as="points">
              <mxPoint x="-518" y="270.12" />
              <mxPoint x="-770" y="270.12" />
            </Array>
          </mxGeometry>
        </mxCell>
        <mxCell id="M3dNTcdWX4ZVkyAugn2l-11" value="Gets Regsiterd to&amp;nbsp;&lt;br&gt;System" style="edgeLabel;html=1;align=center;verticalAlign=middle;resizable=0;points=[];" parent="M3dNTcdWX4ZVkyAugn2l-10" vertex="1" connectable="0">
          <mxGeometry x="-0.3115" y="-1" relative="1" as="geometry">
            <mxPoint x="-46" y="18" as="offset" />
          </mxGeometry>
        </mxCell>
        <mxCell id="M3dNTcdWX4ZVkyAugn2l-13" value="Provide Username,password&lt;br&gt;,email and other relevant information" style="edgeLabel;html=1;align=center;verticalAlign=middle;resizable=0;points=[];" parent="1" vertex="1" connectable="0">
          <mxGeometry x="-339.9987447406929" y="180.00388019843228" as="geometry" />
        </mxCell>
        <mxCell id="M3dNTcdWX4ZVkyAugn2l-15" value="Gets Regsiterd to&amp;nbsp;&lt;br&gt;System" style="edgeLabel;html=1;align=center;verticalAlign=middle;resizable=0;points=[];" parent="1" vertex="1" connectable="0">
          <mxGeometry x="-310.0008229663862" y="290.12" as="geometry" />
        </mxCell>
        <mxCell id="M3dNTcdWX4ZVkyAugn2l-16" value="Level 1 DFD to get &lt;br&gt;Registered to System" style="text;html=1;align=center;verticalAlign=middle;resizable=0;points=[];autosize=1;strokeColor=none;fillColor=none;" parent="1" vertex="1">
          <mxGeometry x="-560" y="303.12" width="140" height="40" as="geometry" />
        </mxCell>
        <mxCell id="M3dNTcdWX4ZVkyAugn2l-17" value="Login Table" style="html=1;dashed=0;whiteSpace=wrap;shape=partialRectangle;right=0;left=0;" parent="1" vertex="1">
          <mxGeometry x="-620" y="50" width="100" height="30" as="geometry" />
        </mxCell>
        <mxCell id="M3dNTcdWX4ZVkyAugn2l-18" value="Account Table" style="html=1;dashed=0;whiteSpace=wrap;shape=partialRectangle;right=0;left=0;" parent="1" vertex="1">
          <mxGeometry x="-450" y="50" width="100" height="30" as="geometry" />
        </mxCell>
        <mxCell id="M3dNTcdWX4ZVkyAugn2l-19" value="" style="endArrow=classic;html=1;rounded=0;entryX=0.5;entryY=1;entryDx=0;entryDy=0;exitX=0.343;exitY=0.02;exitDx=0;exitDy=0;exitPerimeter=0;" parent="1" source="M3dNTcdWX4ZVkyAugn2l-1" target="M3dNTcdWX4ZVkyAugn2l-17" edge="1">
          <mxGeometry width="50" height="50" relative="1" as="geometry">
            <mxPoint x="-580" y="160" as="sourcePoint" />
            <mxPoint x="-530" y="110" as="targetPoint" />
          </mxGeometry>
        </mxCell>
        <mxCell id="M3dNTcdWX4ZVkyAugn2l-22" value="Stores email,password &lt;br&gt;and username" style="edgeLabel;html=1;align=center;verticalAlign=middle;resizable=0;points=[];" parent="M3dNTcdWX4ZVkyAugn2l-19" vertex="1" connectable="0">
          <mxGeometry x="0.442" y="-2" relative="1" as="geometry">
            <mxPoint x="-70" as="offset" />
          </mxGeometry>
        </mxCell>
        <mxCell id="M3dNTcdWX4ZVkyAugn2l-20" value="" style="endArrow=classic;html=1;rounded=0;exitX=0.655;exitY=0.029;exitDx=0;exitDy=0;exitPerimeter=0;entryX=0.324;entryY=1.033;entryDx=0;entryDy=0;entryPerimeter=0;" parent="1" source="M3dNTcdWX4ZVkyAugn2l-1" target="M3dNTcdWX4ZVkyAugn2l-18" edge="1">
          <mxGeometry width="50" height="50" relative="1" as="geometry">
            <mxPoint x="-460" y="180" as="sourcePoint" />
            <mxPoint x="-410" y="130" as="targetPoint" />
          </mxGeometry>
        </mxCell>
        <mxCell id="M3dNTcdWX4ZVkyAugn2l-23" value="Stores email,password,username&lt;br&gt;profilepicture, bio&amp;nbsp;" style="edgeLabel;html=1;align=center;verticalAlign=middle;resizable=0;points=[];" parent="1" vertex="1" connectable="0">
          <mxGeometry x="-330.00395792251146" y="109.99742402329039" as="geometry" />
        </mxCell>
        <mxCell id="M3dNTcdWX4ZVkyAugn2l-24" style="edgeStyle=orthogonalEdgeStyle;rounded=0;orthogonalLoop=1;jettySize=auto;html=1;exitX=1;exitY=1;exitDx=0;exitDy=0;entryX=0.75;entryY=1;entryDx=0;entryDy=0;" parent="1" source="M3dNTcdWX4ZVkyAugn2l-25" target="M3dNTcdWX4ZVkyAugn2l-28" edge="1">
          <mxGeometry relative="1" as="geometry">
            <Array as="points">
              <mxPoint x="428" y="280.12" />
              <mxPoint x="690" y="280.12" />
            </Array>
          </mxGeometry>
        </mxCell>
        <mxCell id="M3dNTcdWX4ZVkyAugn2l-25" value="Sign Up" style="ellipse;whiteSpace=wrap;html=1;aspect=fixed;" parent="1" vertex="1">
          <mxGeometry x="360" y="200.12" width="80" height="80" as="geometry" />
        </mxCell>
        <mxCell id="M3dNTcdWX4ZVkyAugn2l-26" value="Blogger" style="rounded=0;whiteSpace=wrap;html=1;" parent="1" vertex="1">
          <mxGeometry x="90" y="225.12" width="80" height="30" as="geometry" />
        </mxCell>
        <mxCell id="M3dNTcdWX4ZVkyAugn2l-27" style="edgeStyle=orthogonalEdgeStyle;rounded=0;orthogonalLoop=1;jettySize=auto;html=1;entryX=1;entryY=0;entryDx=0;entryDy=0;" parent="1" source="M3dNTcdWX4ZVkyAugn2l-28" target="M3dNTcdWX4ZVkyAugn2l-25" edge="1">
          <mxGeometry relative="1" as="geometry">
            <Array as="points">
              <mxPoint x="680" y="212.12" />
            </Array>
          </mxGeometry>
        </mxCell>
        <mxCell id="M3dNTcdWX4ZVkyAugn2l-28" value="Modderator" style="rounded=0;whiteSpace=wrap;html=1;" parent="1" vertex="1">
          <mxGeometry x="630" y="225.12" width="80" height="30" as="geometry" />
        </mxCell>
        <mxCell id="M3dNTcdWX4ZVkyAugn2l-29" value="" style="endArrow=classic;html=1;rounded=0;entryX=0;entryY=0;entryDx=0;entryDy=0;exitX=0.376;exitY=0.016;exitDx=0;exitDy=0;exitPerimeter=0;" parent="1" source="M3dNTcdWX4ZVkyAugn2l-26" target="M3dNTcdWX4ZVkyAugn2l-25" edge="1">
          <mxGeometry width="50" height="50" relative="1" as="geometry">
            <mxPoint x="200" y="220.12" as="sourcePoint" />
            <mxPoint x="470" y="200.12" as="targetPoint" />
            <Array as="points">
              <mxPoint x="120" y="210.12" />
            </Array>
          </mxGeometry>
        </mxCell>
        <mxCell id="M3dNTcdWX4ZVkyAugn2l-30" value="Provide Username,password" style="edgeLabel;html=1;align=center;verticalAlign=middle;resizable=0;points=[];" parent="M3dNTcdWX4ZVkyAugn2l-29" vertex="1" connectable="0">
          <mxGeometry x="0.0843" y="-1" relative="1" as="geometry">
            <mxPoint x="1" y="-12" as="offset" />
          </mxGeometry>
        </mxCell>
        <mxCell id="M3dNTcdWX4ZVkyAugn2l-31" value="" style="endArrow=classic;html=1;rounded=0;entryX=0.375;entryY=1;entryDx=0;entryDy=0;entryPerimeter=0;exitX=0;exitY=1;exitDx=0;exitDy=0;" parent="1" source="M3dNTcdWX4ZVkyAugn2l-25" target="M3dNTcdWX4ZVkyAugn2l-26" edge="1">
          <mxGeometry width="50" height="50" relative="1" as="geometry">
            <mxPoint x="363.01287606101005" y="255.1199922101722" as="sourcePoint" />
            <mxPoint x="230" y="309.89" as="targetPoint" />
            <Array as="points">
              <mxPoint x="372" y="280.12" />
              <mxPoint x="120" y="280.12" />
            </Array>
          </mxGeometry>
        </mxCell>
        <mxCell id="M3dNTcdWX4ZVkyAugn2l-32" value="Gets Signed in to&amp;nbsp;&lt;br&gt;System" style="edgeLabel;html=1;align=center;verticalAlign=middle;resizable=0;points=[];" parent="M3dNTcdWX4ZVkyAugn2l-31" vertex="1" connectable="0">
          <mxGeometry x="-0.3115" y="-1" relative="1" as="geometry">
            <mxPoint x="-46" y="18" as="offset" />
          </mxGeometry>
        </mxCell>
        <mxCell id="M3dNTcdWX4ZVkyAugn2l-33" value="Provide Username,password" style="edgeLabel;html=1;align=center;verticalAlign=middle;resizable=0;points=[];" parent="1" vertex="1" connectable="0">
          <mxGeometry x="550.0012552593071" y="200.1238801984323" as="geometry" />
        </mxCell>
        <mxCell id="M3dNTcdWX4ZVkyAugn2l-34" value="Gets Signed in to&amp;nbsp;&lt;br&gt;System" style="edgeLabel;html=1;align=center;verticalAlign=middle;resizable=0;points=[];" parent="1" vertex="1" connectable="0">
          <mxGeometry x="579.9991770336138" y="300.12" as="geometry" />
        </mxCell>
        <mxCell id="M3dNTcdWX4ZVkyAugn2l-35" value="Level 1 DFD to get &lt;br&gt;Signed in to System" style="text;html=1;align=center;verticalAlign=middle;resizable=0;points=[];autosize=1;strokeColor=none;fillColor=none;" parent="1" vertex="1">
          <mxGeometry x="335" y="313.12" width="130" height="40" as="geometry" />
        </mxCell>
        <mxCell id="M3dNTcdWX4ZVkyAugn2l-44" style="edgeStyle=orthogonalEdgeStyle;rounded=0;orthogonalLoop=1;jettySize=auto;html=1;exitX=0.75;exitY=1;exitDx=0;exitDy=0;" parent="1" source="M3dNTcdWX4ZVkyAugn2l-36" target="M3dNTcdWX4ZVkyAugn2l-25" edge="1">
          <mxGeometry relative="1" as="geometry">
            <Array as="points">
              <mxPoint x="425" y="180" />
              <mxPoint x="425" y="180" />
            </Array>
          </mxGeometry>
        </mxCell>
        <mxCell id="M3dNTcdWX4ZVkyAugn2l-36" value="Login Table" style="html=1;dashed=0;whiteSpace=wrap;shape=partialRectangle;right=0;left=0;" parent="1" vertex="1">
          <mxGeometry x="350" y="30" width="100" height="30" as="geometry" />
        </mxCell>
        <mxCell id="M3dNTcdWX4ZVkyAugn2l-38" value="" style="endArrow=classic;html=1;rounded=0;entryX=0.301;entryY=1.079;entryDx=0;entryDy=0;entryPerimeter=0;exitX=0.257;exitY=0.075;exitDx=0;exitDy=0;exitPerimeter=0;" parent="1" source="M3dNTcdWX4ZVkyAugn2l-25" target="M3dNTcdWX4ZVkyAugn2l-36" edge="1">
          <mxGeometry width="50" height="50" relative="1" as="geometry">
            <mxPoint x="380" y="200" as="sourcePoint" />
            <mxPoint x="360" y="120" as="targetPoint" />
          </mxGeometry>
        </mxCell>
        <mxCell id="M3dNTcdWX4ZVkyAugn2l-39" value="Requests username&lt;br&gt;,password" style="edgeLabel;html=1;align=center;verticalAlign=middle;resizable=0;points=[];" parent="M3dNTcdWX4ZVkyAugn2l-38" vertex="1" connectable="0">
          <mxGeometry x="0.442" y="-2" relative="1" as="geometry">
            <mxPoint x="-70" as="offset" />
          </mxGeometry>
        </mxCell>
        <mxCell id="M3dNTcdWX4ZVkyAugn2l-63" value="&lt;span style=&quot;color: rgb(240, 240, 240); font-family: Helvetica; font-size: 11px; font-style: normal; font-variant-ligatures: normal; font-variant-caps: normal; font-weight: 400; letter-spacing: normal; orphans: 2; text-align: center; text-indent: 0px; text-transform: none; widows: 2; word-spacing: 0px; -webkit-text-stroke-width: 0px; background-color: rgb(24, 20, 29); text-decoration-thickness: initial; text-decoration-style: initial; text-decoration-color: initial; float: none; display: inline !important;&quot;&gt;Retrives username&lt;/span&gt;&lt;br style=&quot;border-color: rgb(0, 0, 0); color: rgb(240, 240, 240); font-family: Helvetica; font-size: 11px; font-style: normal; font-variant-ligatures: normal; font-variant-caps: normal; font-weight: 400; letter-spacing: normal; orphans: 2; text-align: center; text-indent: 0px; text-transform: none; widows: 2; word-spacing: 0px; -webkit-text-stroke-width: 0px; text-decoration-thickness: initial; text-decoration-style: initial; text-decoration-color: initial;&quot;&gt;&lt;span style=&quot;color: rgb(240, 240, 240); font-family: Helvetica; font-size: 11px; font-style: normal; font-variant-ligatures: normal; font-variant-caps: normal; font-weight: 400; letter-spacing: normal; orphans: 2; text-align: center; text-indent: 0px; text-transform: none; widows: 2; word-spacing: 0px; -webkit-text-stroke-width: 0px; background-color: rgb(24, 20, 29); text-decoration-thickness: initial; text-decoration-style: initial; text-decoration-color: initial; float: none; display: inline !important;&quot;&gt;,password&lt;/span&gt;" style="text;whiteSpace=wrap;html=1;" parent="1" vertex="1">
          <mxGeometry x="430" y="80" width="100" height="50" as="geometry" />
        </mxCell>
        <mxCell id="M3dNTcdWX4ZVkyAugn2l-64" style="edgeStyle=orthogonalEdgeStyle;rounded=0;orthogonalLoop=1;jettySize=auto;html=1;exitX=1;exitY=1;exitDx=0;exitDy=0;entryX=0.75;entryY=1;entryDx=0;entryDy=0;" parent="1" source="M3dNTcdWX4ZVkyAugn2l-65" target="M3dNTcdWX4ZVkyAugn2l-68" edge="1">
          <mxGeometry relative="1" as="geometry">
            <Array as="points">
              <mxPoint x="-462" y="648.12" />
              <mxPoint x="-200" y="648.12" />
            </Array>
          </mxGeometry>
        </mxCell>
        <mxCell id="M3dNTcdWX4ZVkyAugn2l-65" value="Post" style="ellipse;whiteSpace=wrap;html=1;aspect=fixed;" parent="1" vertex="1">
          <mxGeometry x="-530" y="568.12" width="80" height="80" as="geometry" />
        </mxCell>
        <mxCell id="M3dNTcdWX4ZVkyAugn2l-66" value="Blogger" style="rounded=0;whiteSpace=wrap;html=1;" parent="1" vertex="1">
          <mxGeometry x="-800" y="593.12" width="80" height="30" as="geometry" />
        </mxCell>
        <mxCell id="M3dNTcdWX4ZVkyAugn2l-67" style="edgeStyle=orthogonalEdgeStyle;rounded=0;orthogonalLoop=1;jettySize=auto;html=1;entryX=1;entryY=0;entryDx=0;entryDy=0;" parent="1" source="M3dNTcdWX4ZVkyAugn2l-68" target="M3dNTcdWX4ZVkyAugn2l-65" edge="1">
          <mxGeometry relative="1" as="geometry">
            <Array as="points">
              <mxPoint x="-210" y="580.12" />
            </Array>
          </mxGeometry>
        </mxCell>
        <mxCell id="M3dNTcdWX4ZVkyAugn2l-68" value="Modderator" style="rounded=0;whiteSpace=wrap;html=1;" parent="1" vertex="1">
          <mxGeometry x="-260" y="593.12" width="80" height="30" as="geometry" />
        </mxCell>
        <mxCell id="M3dNTcdWX4ZVkyAugn2l-69" value="" style="endArrow=classic;html=1;rounded=0;entryX=0;entryY=0;entryDx=0;entryDy=0;exitX=0.376;exitY=0.016;exitDx=0;exitDy=0;exitPerimeter=0;" parent="1" source="M3dNTcdWX4ZVkyAugn2l-66" target="M3dNTcdWX4ZVkyAugn2l-65" edge="1">
          <mxGeometry width="50" height="50" relative="1" as="geometry">
            <mxPoint x="-690" y="588.12" as="sourcePoint" />
            <mxPoint x="-420" y="568.12" as="targetPoint" />
            <Array as="points">
              <mxPoint x="-770" y="578.12" />
            </Array>
          </mxGeometry>
        </mxCell>
        <mxCell id="M3dNTcdWX4ZVkyAugn2l-70" value="Provide Title,Display Text,Actual Text&lt;br&gt;and image to post" style="edgeLabel;html=1;align=center;verticalAlign=middle;resizable=0;points=[];" parent="M3dNTcdWX4ZVkyAugn2l-69" vertex="1" connectable="0">
          <mxGeometry x="0.0843" y="-1" relative="1" as="geometry">
            <mxPoint x="1" y="-20" as="offset" />
          </mxGeometry>
        </mxCell>
        <mxCell id="M3dNTcdWX4ZVkyAugn2l-71" value="" style="endArrow=classic;html=1;rounded=0;entryX=0.375;entryY=1;entryDx=0;entryDy=0;entryPerimeter=0;exitX=0;exitY=1;exitDx=0;exitDy=0;" parent="1" source="M3dNTcdWX4ZVkyAugn2l-65" target="M3dNTcdWX4ZVkyAugn2l-66" edge="1">
          <mxGeometry width="50" height="50" relative="1" as="geometry">
            <mxPoint x="-526.98712393899" y="623.1199922101722" as="sourcePoint" />
            <mxPoint x="-660" y="677.89" as="targetPoint" />
            <Array as="points">
              <mxPoint x="-518" y="648.12" />
              <mxPoint x="-770" y="648.12" />
            </Array>
          </mxGeometry>
        </mxCell>
        <mxCell id="M3dNTcdWX4ZVkyAugn2l-72" value="Gets Posted to&amp;nbsp;&lt;br&gt;System" style="edgeLabel;html=1;align=center;verticalAlign=middle;resizable=0;points=[];" parent="M3dNTcdWX4ZVkyAugn2l-71" vertex="1" connectable="0">
          <mxGeometry x="-0.3115" y="-1" relative="1" as="geometry">
            <mxPoint x="-46" y="18" as="offset" />
          </mxGeometry>
        </mxCell>
        <mxCell id="M3dNTcdWX4ZVkyAugn2l-74" value="Gets Posted to&amp;nbsp;&lt;br&gt;System" style="edgeLabel;html=1;align=center;verticalAlign=middle;resizable=0;points=[];" parent="1" vertex="1" connectable="0">
          <mxGeometry x="-310.0008229663862" y="668.12" as="geometry" />
        </mxCell>
        <mxCell id="M3dNTcdWX4ZVkyAugn2l-75" value="Level 1 DFD to get &lt;br&gt;Post to System" style="text;html=1;align=center;verticalAlign=middle;resizable=0;points=[];autosize=1;strokeColor=none;fillColor=none;" parent="1" vertex="1">
          <mxGeometry x="-550" y="681.12" width="120" height="40" as="geometry" />
        </mxCell>
        <mxCell id="M3dNTcdWX4ZVkyAugn2l-77" value="Posts Table" style="html=1;dashed=0;whiteSpace=wrap;shape=partialRectangle;right=0;left=0;" parent="1" vertex="1">
          <mxGeometry x="-610" y="398" width="100" height="30" as="geometry" />
        </mxCell>
        <mxCell id="M3dNTcdWX4ZVkyAugn2l-78" value="" style="endArrow=classic;html=1;rounded=0;entryX=0.5;entryY=1;entryDx=0;entryDy=0;exitX=0.225;exitY=0.048;exitDx=0;exitDy=0;exitPerimeter=0;" parent="1" source="M3dNTcdWX4ZVkyAugn2l-65" target="M3dNTcdWX4ZVkyAugn2l-77" edge="1">
          <mxGeometry width="50" height="50" relative="1" as="geometry">
            <mxPoint x="-510" y="568" as="sourcePoint" />
            <mxPoint x="-490" y="430" as="targetPoint" />
          </mxGeometry>
        </mxCell>
        <mxCell id="M3dNTcdWX4ZVkyAugn2l-79" value="Stores Ttile,Display Text and Actual&lt;br&gt;Text&amp;nbsp;" style="edgeLabel;html=1;align=center;verticalAlign=middle;resizable=0;points=[];" parent="M3dNTcdWX4ZVkyAugn2l-78" vertex="1" connectable="0">
          <mxGeometry x="0.442" y="-2" relative="1" as="geometry">
            <mxPoint x="-95" y="3" as="offset" />
          </mxGeometry>
        </mxCell>
        <mxCell id="M3dNTcdWX4ZVkyAugn2l-81" value="Provide Title,Display Text,Actual Text&lt;br&gt;and image to post" style="edgeLabel;html=1;align=center;verticalAlign=middle;resizable=0;points=[];" parent="1" vertex="1" connectable="0">
          <mxGeometry x="-330.0015429486151" y="560.0017481231692" as="geometry" />
        </mxCell>
        <mxCell id="M3dNTcdWX4ZVkyAugn2l-82" value="Image Table" style="html=1;dashed=0;whiteSpace=wrap;shape=partialRectangle;right=0;left=0;" parent="1" vertex="1">
          <mxGeometry x="-480" y="398" width="100" height="30" as="geometry" />
        </mxCell>
        <mxCell id="M3dNTcdWX4ZVkyAugn2l-84" value="" style="endArrow=classic;html=1;rounded=0;exitX=0.682;exitY=-0.026;exitDx=0;exitDy=0;exitPerimeter=0;entryX=0.5;entryY=1;entryDx=0;entryDy=0;" parent="1" source="M3dNTcdWX4ZVkyAugn2l-65" target="M3dNTcdWX4ZVkyAugn2l-82" edge="1">
          <mxGeometry width="50" height="50" relative="1" as="geometry">
            <mxPoint x="-450" y="550" as="sourcePoint" />
            <mxPoint x="-400" y="500" as="targetPoint" />
          </mxGeometry>
        </mxCell>
        <mxCell id="M3dNTcdWX4ZVkyAugn2l-85" value="Stores Image Link&amp;nbsp;" style="edgeLabel;html=1;align=center;verticalAlign=middle;resizable=0;points=[];" parent="1" vertex="1" connectable="0">
          <mxGeometry x="-390.0005052491461" y="460.0027354701299" as="geometry" />
        </mxCell>
        <mxCell id="M3dNTcdWX4ZVkyAugn2l-104" style="edgeStyle=orthogonalEdgeStyle;rounded=0;orthogonalLoop=1;jettySize=auto;html=1;exitX=1;exitY=1;exitDx=0;exitDy=0;entryX=0.75;entryY=1;entryDx=0;entryDy=0;" parent="1" source="M3dNTcdWX4ZVkyAugn2l-105" target="M3dNTcdWX4ZVkyAugn2l-108" edge="1">
          <mxGeometry relative="1" as="geometry">
            <Array as="points">
              <mxPoint x="-462" y="1060.12" />
              <mxPoint x="-200" y="1060.12" />
            </Array>
          </mxGeometry>
        </mxCell>
        <mxCell id="M3dNTcdWX4ZVkyAugn2l-105" value="Likes" style="ellipse;whiteSpace=wrap;html=1;aspect=fixed;" parent="1" vertex="1">
          <mxGeometry x="-530" y="980.12" width="80" height="80" as="geometry" />
        </mxCell>
        <mxCell id="M3dNTcdWX4ZVkyAugn2l-106" value="Blogger" style="rounded=0;whiteSpace=wrap;html=1;" parent="1" vertex="1">
          <mxGeometry x="-800" y="1005.12" width="80" height="30" as="geometry" />
        </mxCell>
        <mxCell id="M3dNTcdWX4ZVkyAugn2l-107" style="edgeStyle=orthogonalEdgeStyle;rounded=0;orthogonalLoop=1;jettySize=auto;html=1;entryX=1;entryY=0;entryDx=0;entryDy=0;" parent="1" source="M3dNTcdWX4ZVkyAugn2l-108" target="M3dNTcdWX4ZVkyAugn2l-105" edge="1">
          <mxGeometry relative="1" as="geometry">
            <Array as="points">
              <mxPoint x="-210" y="992.12" />
            </Array>
          </mxGeometry>
        </mxCell>
        <mxCell id="M3dNTcdWX4ZVkyAugn2l-108" value="Modderator" style="rounded=0;whiteSpace=wrap;html=1;" parent="1" vertex="1">
          <mxGeometry x="-260" y="1005.12" width="80" height="30" as="geometry" />
        </mxCell>
        <mxCell id="M3dNTcdWX4ZVkyAugn2l-109" value="" style="endArrow=classic;html=1;rounded=0;entryX=0;entryY=0;entryDx=0;entryDy=0;exitX=0.376;exitY=0.016;exitDx=0;exitDy=0;exitPerimeter=0;" parent="1" source="M3dNTcdWX4ZVkyAugn2l-106" target="M3dNTcdWX4ZVkyAugn2l-105" edge="1">
          <mxGeometry width="50" height="50" relative="1" as="geometry">
            <mxPoint x="-690" y="1000.12" as="sourcePoint" />
            <mxPoint x="-420" y="980.12" as="targetPoint" />
            <Array as="points">
              <mxPoint x="-770" y="990.12" />
            </Array>
          </mxGeometry>
        </mxCell>
        <mxCell id="M3dNTcdWX4ZVkyAugn2l-110" value="Likes a Post" style="edgeLabel;html=1;align=center;verticalAlign=middle;resizable=0;points=[];" parent="M3dNTcdWX4ZVkyAugn2l-109" vertex="1" connectable="0">
          <mxGeometry x="0.0843" y="-1" relative="1" as="geometry">
            <mxPoint x="1" y="-20" as="offset" />
          </mxGeometry>
        </mxCell>
        <mxCell id="M3dNTcdWX4ZVkyAugn2l-111" value="" style="endArrow=classic;html=1;rounded=0;entryX=0.375;entryY=1;entryDx=0;entryDy=0;entryPerimeter=0;exitX=0;exitY=1;exitDx=0;exitDy=0;" parent="1" source="M3dNTcdWX4ZVkyAugn2l-105" target="M3dNTcdWX4ZVkyAugn2l-106" edge="1">
          <mxGeometry width="50" height="50" relative="1" as="geometry">
            <mxPoint x="-526.98712393899" y="1035.1199922101723" as="sourcePoint" />
            <mxPoint x="-660" y="1089.8899999999999" as="targetPoint" />
            <Array as="points">
              <mxPoint x="-518" y="1060.12" />
              <mxPoint x="-770" y="1060.12" />
            </Array>
          </mxGeometry>
        </mxCell>
        <mxCell id="M3dNTcdWX4ZVkyAugn2l-112" value="Gets Confirmation Messege" style="edgeLabel;html=1;align=center;verticalAlign=middle;resizable=0;points=[];" parent="M3dNTcdWX4ZVkyAugn2l-111" vertex="1" connectable="0">
          <mxGeometry x="-0.3115" y="-1" relative="1" as="geometry">
            <mxPoint x="-46" y="18" as="offset" />
          </mxGeometry>
        </mxCell>
        <mxCell id="M3dNTcdWX4ZVkyAugn2l-113" value="Gets Confirmation Messege" style="edgeLabel;html=1;align=center;verticalAlign=middle;resizable=0;points=[];" parent="1" vertex="1" connectable="0">
          <mxGeometry x="-310.0008229663862" y="1080.12" as="geometry" />
        </mxCell>
        <mxCell id="M3dNTcdWX4ZVkyAugn2l-114" value="Level 1 DFD to Like&lt;br&gt;Post in System" style="text;html=1;align=center;verticalAlign=middle;resizable=0;points=[];autosize=1;strokeColor=none;fillColor=none;" parent="1" vertex="1">
          <mxGeometry x="-550" y="1130" width="130" height="40" as="geometry" />
        </mxCell>
        <mxCell id="M3dNTcdWX4ZVkyAugn2l-115" value="Likes Table" style="html=1;dashed=0;whiteSpace=wrap;shape=partialRectangle;right=0;left=0;" parent="1" vertex="1">
          <mxGeometry x="-610" y="810" width="100" height="30" as="geometry" />
        </mxCell>
        <mxCell id="M3dNTcdWX4ZVkyAugn2l-116" value="" style="endArrow=classic;html=1;rounded=0;entryX=0.5;entryY=1;entryDx=0;entryDy=0;exitX=0.225;exitY=0.048;exitDx=0;exitDy=0;exitPerimeter=0;" parent="1" source="M3dNTcdWX4ZVkyAugn2l-105" target="M3dNTcdWX4ZVkyAugn2l-115" edge="1">
          <mxGeometry width="50" height="50" relative="1" as="geometry">
            <mxPoint x="-510" y="980" as="sourcePoint" />
            <mxPoint x="-490" y="842" as="targetPoint" />
          </mxGeometry>
        </mxCell>
        <mxCell id="M3dNTcdWX4ZVkyAugn2l-117" value="Stores Post id, User id" style="edgeLabel;html=1;align=center;verticalAlign=middle;resizable=0;points=[];" parent="M3dNTcdWX4ZVkyAugn2l-116" vertex="1" connectable="0">
          <mxGeometry x="0.442" y="-2" relative="1" as="geometry">
            <mxPoint x="-95" y="3" as="offset" />
          </mxGeometry>
        </mxCell>
        <mxCell id="M3dNTcdWX4ZVkyAugn2l-118" value="Provide Title,Display Text,Actual Text&lt;br&gt;and image to post" style="edgeLabel;html=1;align=center;verticalAlign=middle;resizable=0;points=[];" parent="1" vertex="1" connectable="0">
          <mxGeometry x="-330.0015429486151" y="972.0017481231692" as="geometry" />
        </mxCell>
        <mxCell id="M3dNTcdWX4ZVkyAugn2l-119" value="Posts Table" style="html=1;dashed=0;whiteSpace=wrap;shape=partialRectangle;right=0;left=0;" parent="1" vertex="1">
          <mxGeometry x="-480" y="810" width="100" height="30" as="geometry" />
        </mxCell>
        <mxCell id="M3dNTcdWX4ZVkyAugn2l-120" value="" style="endArrow=classic;html=1;rounded=0;exitX=0.682;exitY=-0.026;exitDx=0;exitDy=0;exitPerimeter=0;entryX=0.5;entryY=1;entryDx=0;entryDy=0;" parent="1" source="M3dNTcdWX4ZVkyAugn2l-105" target="M3dNTcdWX4ZVkyAugn2l-119" edge="1">
          <mxGeometry width="50" height="50" relative="1" as="geometry">
            <mxPoint x="-450" y="962" as="sourcePoint" />
            <mxPoint x="-400" y="912" as="targetPoint" />
          </mxGeometry>
        </mxCell>
        <mxCell id="M3dNTcdWX4ZVkyAugn2l-121" value="Updates total likes&amp;nbsp;&amp;nbsp;" style="edgeLabel;html=1;align=center;verticalAlign=middle;resizable=0;points=[];" parent="1" vertex="1" connectable="0">
          <mxGeometry x="-380.0005052491461" y="880.0027354701299" as="geometry" />
        </mxCell>
        <mxCell id="M3dNTcdWX4ZVkyAugn2l-140" style="edgeStyle=orthogonalEdgeStyle;rounded=0;orthogonalLoop=1;jettySize=auto;html=1;exitX=1;exitY=1;exitDx=0;exitDy=0;entryX=0.75;entryY=1;entryDx=0;entryDy=0;" parent="1" source="M3dNTcdWX4ZVkyAugn2l-141" target="M3dNTcdWX4ZVkyAugn2l-144" edge="1">
          <mxGeometry relative="1" as="geometry">
            <Array as="points">
              <mxPoint x="-462" y="1500.12" />
              <mxPoint x="-200" y="1500.12" />
            </Array>
          </mxGeometry>
        </mxCell>
        <mxCell id="M3dNTcdWX4ZVkyAugn2l-141" value="Comment" style="ellipse;whiteSpace=wrap;html=1;aspect=fixed;" parent="1" vertex="1">
          <mxGeometry x="-530" y="1420.12" width="80" height="80" as="geometry" />
        </mxCell>
        <mxCell id="M3dNTcdWX4ZVkyAugn2l-142" value="Blogger" style="rounded=0;whiteSpace=wrap;html=1;" parent="1" vertex="1">
          <mxGeometry x="-800" y="1445.12" width="80" height="30" as="geometry" />
        </mxCell>
        <mxCell id="M3dNTcdWX4ZVkyAugn2l-143" style="edgeStyle=orthogonalEdgeStyle;rounded=0;orthogonalLoop=1;jettySize=auto;html=1;entryX=1;entryY=0;entryDx=0;entryDy=0;" parent="1" source="M3dNTcdWX4ZVkyAugn2l-144" target="M3dNTcdWX4ZVkyAugn2l-141" edge="1">
          <mxGeometry relative="1" as="geometry">
            <Array as="points">
              <mxPoint x="-210" y="1432.12" />
            </Array>
          </mxGeometry>
        </mxCell>
        <mxCell id="M3dNTcdWX4ZVkyAugn2l-144" value="Modderator" style="rounded=0;whiteSpace=wrap;html=1;" parent="1" vertex="1">
          <mxGeometry x="-260" y="1445.12" width="80" height="30" as="geometry" />
        </mxCell>
        <mxCell id="M3dNTcdWX4ZVkyAugn2l-145" value="" style="endArrow=classic;html=1;rounded=0;entryX=0;entryY=0;entryDx=0;entryDy=0;exitX=0.376;exitY=0.016;exitDx=0;exitDy=0;exitPerimeter=0;" parent="1" source="M3dNTcdWX4ZVkyAugn2l-142" target="M3dNTcdWX4ZVkyAugn2l-141" edge="1">
          <mxGeometry width="50" height="50" relative="1" as="geometry">
            <mxPoint x="-690" y="1440.12" as="sourcePoint" />
            <mxPoint x="-420" y="1420.12" as="targetPoint" />
            <Array as="points">
              <mxPoint x="-770" y="1430.12" />
            </Array>
          </mxGeometry>
        </mxCell>
        <mxCell id="M3dNTcdWX4ZVkyAugn2l-146" value="Provides Comment" style="edgeLabel;html=1;align=center;verticalAlign=middle;resizable=0;points=[];" parent="M3dNTcdWX4ZVkyAugn2l-145" vertex="1" connectable="0">
          <mxGeometry x="0.0843" y="-1" relative="1" as="geometry">
            <mxPoint x="1" y="-12" as="offset" />
          </mxGeometry>
        </mxCell>
        <mxCell id="M3dNTcdWX4ZVkyAugn2l-147" value="" style="endArrow=classic;html=1;rounded=0;entryX=0.375;entryY=1;entryDx=0;entryDy=0;entryPerimeter=0;exitX=0;exitY=1;exitDx=0;exitDy=0;" parent="1" source="M3dNTcdWX4ZVkyAugn2l-141" target="M3dNTcdWX4ZVkyAugn2l-142" edge="1">
          <mxGeometry width="50" height="50" relative="1" as="geometry">
            <mxPoint x="-526.98712393899" y="1475.1199922101723" as="sourcePoint" />
            <mxPoint x="-660" y="1529.8899999999999" as="targetPoint" />
            <Array as="points">
              <mxPoint x="-518" y="1500.12" />
              <mxPoint x="-770" y="1500.12" />
            </Array>
          </mxGeometry>
        </mxCell>
        <mxCell id="M3dNTcdWX4ZVkyAugn2l-148" value="Gets Confirmation Messege" style="edgeLabel;html=1;align=center;verticalAlign=middle;resizable=0;points=[];" parent="M3dNTcdWX4ZVkyAugn2l-147" vertex="1" connectable="0">
          <mxGeometry x="-0.3115" y="-1" relative="1" as="geometry">
            <mxPoint x="-46" y="18" as="offset" />
          </mxGeometry>
        </mxCell>
        <mxCell id="M3dNTcdWX4ZVkyAugn2l-149" value="Provides Comment" style="edgeLabel;html=1;align=center;verticalAlign=middle;resizable=0;points=[];" parent="1" vertex="1" connectable="0">
          <mxGeometry x="-339.9987447406929" y="1420.1238801984323" as="geometry" />
        </mxCell>
        <mxCell id="M3dNTcdWX4ZVkyAugn2l-150" value="Gets Confirmation Messege" style="edgeLabel;html=1;align=center;verticalAlign=middle;resizable=0;points=[];" parent="1" vertex="1" connectable="0">
          <mxGeometry x="-310.0008229663862" y="1520.12" as="geometry" />
        </mxCell>
        <mxCell id="M3dNTcdWX4ZVkyAugn2l-151" value="Level 1 DFD to get &lt;br&gt;Comment to System" style="text;html=1;align=center;verticalAlign=middle;resizable=0;points=[];autosize=1;strokeColor=none;fillColor=none;" parent="1" vertex="1">
          <mxGeometry x="-555" y="1533.12" width="130" height="40" as="geometry" />
        </mxCell>
        <mxCell id="M3dNTcdWX4ZVkyAugn2l-153" value="Comments Table" style="html=1;dashed=0;whiteSpace=wrap;shape=partialRectangle;right=0;left=0;" parent="1" vertex="1">
          <mxGeometry x="-540" y="1250" width="100" height="30" as="geometry" />
        </mxCell>
        <mxCell id="M3dNTcdWX4ZVkyAugn2l-154" value="" style="endArrow=classic;html=1;rounded=0;entryX=0.5;entryY=1;entryDx=0;entryDy=0;" parent="1" target="M3dNTcdWX4ZVkyAugn2l-153" edge="1">
          <mxGeometry width="50" height="50" relative="1" as="geometry">
            <mxPoint x="-490" y="1420" as="sourcePoint" />
            <mxPoint x="-530" y="1340" as="targetPoint" />
          </mxGeometry>
        </mxCell>
        <mxCell id="M3dNTcdWX4ZVkyAugn2l-155" value="Stores Post id, Commenter id&lt;br&gt;and Comment" style="edgeLabel;html=1;align=center;verticalAlign=middle;resizable=0;points=[];" parent="M3dNTcdWX4ZVkyAugn2l-154" vertex="1" connectable="0">
          <mxGeometry x="0.442" y="-2" relative="1" as="geometry">
            <mxPoint x="-92" y="11" as="offset" />
          </mxGeometry>
        </mxCell>
        <mxCell id="M3dNTcdWX4ZVkyAugn2l-174" style="edgeStyle=orthogonalEdgeStyle;rounded=0;orthogonalLoop=1;jettySize=auto;html=1;exitX=1;exitY=1;exitDx=0;exitDy=0;entryX=0.75;entryY=1;entryDx=0;entryDy=0;" parent="1" source="M3dNTcdWX4ZVkyAugn2l-175" target="M3dNTcdWX4ZVkyAugn2l-178" edge="1">
          <mxGeometry relative="1" as="geometry">
            <Array as="points">
              <mxPoint x="438" y="770.1199999999999" />
              <mxPoint x="700" y="770.1199999999999" />
            </Array>
          </mxGeometry>
        </mxCell>
        <mxCell id="M3dNTcdWX4ZVkyAugn2l-175" value="post&lt;br&gt;display" style="ellipse;whiteSpace=wrap;html=1;aspect=fixed;" parent="1" vertex="1">
          <mxGeometry x="370" y="690.12" width="80" height="80" as="geometry" />
        </mxCell>
        <mxCell id="M3dNTcdWX4ZVkyAugn2l-176" value="Blogger" style="rounded=0;whiteSpace=wrap;html=1;" parent="1" vertex="1">
          <mxGeometry x="100" y="715.12" width="80" height="30" as="geometry" />
        </mxCell>
        <mxCell id="M3dNTcdWX4ZVkyAugn2l-177" style="edgeStyle=orthogonalEdgeStyle;rounded=0;orthogonalLoop=1;jettySize=auto;html=1;entryX=1;entryY=0;entryDx=0;entryDy=0;" parent="1" source="M3dNTcdWX4ZVkyAugn2l-178" target="M3dNTcdWX4ZVkyAugn2l-175" edge="1">
          <mxGeometry relative="1" as="geometry">
            <Array as="points">
              <mxPoint x="690" y="702.12" />
            </Array>
          </mxGeometry>
        </mxCell>
        <mxCell id="M3dNTcdWX4ZVkyAugn2l-178" value="Modderator" style="rounded=0;whiteSpace=wrap;html=1;" parent="1" vertex="1">
          <mxGeometry x="640" y="715.12" width="80" height="30" as="geometry" />
        </mxCell>
        <mxCell id="M3dNTcdWX4ZVkyAugn2l-179" value="" style="endArrow=classic;html=1;rounded=0;entryX=0;entryY=0;entryDx=0;entryDy=0;exitX=0.376;exitY=0.016;exitDx=0;exitDy=0;exitPerimeter=0;" parent="1" source="M3dNTcdWX4ZVkyAugn2l-176" target="M3dNTcdWX4ZVkyAugn2l-175" edge="1">
          <mxGeometry width="50" height="50" relative="1" as="geometry">
            <mxPoint x="210" y="710.12" as="sourcePoint" />
            <mxPoint x="480" y="690.12" as="targetPoint" />
            <Array as="points">
              <mxPoint x="130" y="700.12" />
            </Array>
          </mxGeometry>
        </mxCell>
        <mxCell id="M3dNTcdWX4ZVkyAugn2l-180" value="views a post" style="edgeLabel;html=1;align=center;verticalAlign=middle;resizable=0;points=[];" parent="M3dNTcdWX4ZVkyAugn2l-179" vertex="1" connectable="0">
          <mxGeometry x="0.0843" y="-1" relative="1" as="geometry">
            <mxPoint x="-19" y="-12" as="offset" />
          </mxGeometry>
        </mxCell>
        <mxCell id="M3dNTcdWX4ZVkyAugn2l-181" value="" style="endArrow=classic;html=1;rounded=0;entryX=0.375;entryY=1;entryDx=0;entryDy=0;entryPerimeter=0;exitX=0;exitY=1;exitDx=0;exitDy=0;" parent="1" source="M3dNTcdWX4ZVkyAugn2l-175" target="M3dNTcdWX4ZVkyAugn2l-176" edge="1">
          <mxGeometry width="50" height="50" relative="1" as="geometry">
            <mxPoint x="373.01287606101005" y="745.1199922101723" as="sourcePoint" />
            <mxPoint x="240" y="799.8899999999999" as="targetPoint" />
            <Array as="points">
              <mxPoint x="382" y="770.1199999999999" />
              <mxPoint x="130" y="770.1199999999999" />
            </Array>
          </mxGeometry>
        </mxCell>
        <mxCell id="M3dNTcdWX4ZVkyAugn2l-182" value="displays post" style="edgeLabel;html=1;align=center;verticalAlign=middle;resizable=0;points=[];" parent="M3dNTcdWX4ZVkyAugn2l-181" vertex="1" connectable="0">
          <mxGeometry x="-0.3115" y="-1" relative="1" as="geometry">
            <mxPoint x="-55" y="11" as="offset" />
          </mxGeometry>
        </mxCell>
        <mxCell id="M3dNTcdWX4ZVkyAugn2l-183" value="displays post" style="edgeLabel;html=1;align=center;verticalAlign=middle;resizable=0;points=[];" parent="1" vertex="1" connectable="0">
          <mxGeometry x="579.9991770336138" y="779.9999999999999" as="geometry" />
        </mxCell>
        <mxCell id="M3dNTcdWX4ZVkyAugn2l-184" value="Level 1 DFD to display&lt;br&gt;Post in System" style="text;html=1;align=center;verticalAlign=middle;resizable=0;points=[];autosize=1;strokeColor=none;fillColor=none;" parent="1" vertex="1">
          <mxGeometry x="360" y="932" width="140" height="40" as="geometry" />
        </mxCell>
        <mxCell id="M3dNTcdWX4ZVkyAugn2l-185" value="Likes Table" style="html=1;dashed=0;whiteSpace=wrap;shape=partialRectangle;right=0;left=0;" parent="1" vertex="1">
          <mxGeometry x="550" y="910" width="100" height="30" as="geometry" />
        </mxCell>
        <mxCell id="M3dNTcdWX4ZVkyAugn2l-186" value="" style="endArrow=classic;html=1;rounded=0;entryX=0.25;entryY=0;entryDx=0;entryDy=0;exitX=0.5;exitY=1;exitDx=0;exitDy=0;" parent="1" source="M3dNTcdWX4ZVkyAugn2l-175" target="M3dNTcdWX4ZVkyAugn2l-185" edge="1">
          <mxGeometry width="50" height="50" relative="1" as="geometry">
            <mxPoint x="380" y="690" as="sourcePoint" />
            <mxPoint x="410" y="552" as="targetPoint" />
          </mxGeometry>
        </mxCell>
        <mxCell id="M3dNTcdWX4ZVkyAugn2l-188" value="Views a post" style="edgeLabel;html=1;align=center;verticalAlign=middle;resizable=0;points=[];" parent="1" vertex="1" connectable="0">
          <mxGeometry x="589.9984570513849" y="690.1217481231693" as="geometry" />
        </mxCell>
        <mxCell id="M3dNTcdWX4ZVkyAugn2l-189" value="Posts Table" style="html=1;dashed=0;whiteSpace=wrap;shape=partialRectangle;right=0;left=0;" parent="1" vertex="1">
          <mxGeometry x="230" y="538.12" width="100" height="30" as="geometry" />
        </mxCell>
        <mxCell id="M3dNTcdWX4ZVkyAugn2l-190" value="" style="endArrow=classic;html=1;rounded=0;exitX=0.5;exitY=0;exitDx=0;exitDy=0;entryX=0.5;entryY=1;entryDx=0;entryDy=0;" parent="1" source="M3dNTcdWX4ZVkyAugn2l-175" target="M3dNTcdWX4ZVkyAugn2l-189" edge="1">
          <mxGeometry width="50" height="50" relative="1" as="geometry">
            <mxPoint x="450" y="672" as="sourcePoint" />
            <mxPoint x="500" y="622" as="targetPoint" />
          </mxGeometry>
        </mxCell>
        <mxCell id="M3dNTcdWX4ZVkyAugn2l-193" value="Images Table" style="html=1;dashed=0;whiteSpace=wrap;shape=partialRectangle;right=0;left=0;" parent="1" vertex="1">
          <mxGeometry x="450" y="535" width="100" height="30" as="geometry" />
        </mxCell>
        <mxCell id="M3dNTcdWX4ZVkyAugn2l-195" value="Comments Table" style="html=1;dashed=0;whiteSpace=wrap;shape=partialRectangle;right=0;left=0;" parent="1" vertex="1">
          <mxGeometry x="235" y="910" width="100" height="30" as="geometry" />
        </mxCell>
        <mxCell id="M3dNTcdWX4ZVkyAugn2l-196" value="" style="endArrow=classic;html=1;rounded=0;entryX=0.874;entryY=-0.014;entryDx=0;entryDy=0;exitX=0.5;exitY=1;exitDx=0;exitDy=0;entryPerimeter=0;" parent="1" source="M3dNTcdWX4ZVkyAugn2l-175" target="M3dNTcdWX4ZVkyAugn2l-195" edge="1">
          <mxGeometry width="50" height="50" relative="1" as="geometry">
            <mxPoint x="330" y="860" as="sourcePoint" />
            <mxPoint x="380" y="810" as="targetPoint" />
          </mxGeometry>
        </mxCell>
        <mxCell id="M3dNTcdWX4ZVkyAugn2l-198" value="" style="endArrow=classic;html=1;rounded=0;exitX=0.5;exitY=0;exitDx=0;exitDy=0;entryX=0.5;entryY=1;entryDx=0;entryDy=0;" parent="1" source="M3dNTcdWX4ZVkyAugn2l-175" target="M3dNTcdWX4ZVkyAugn2l-193" edge="1">
          <mxGeometry width="50" height="50" relative="1" as="geometry">
            <mxPoint x="450" y="670" as="sourcePoint" />
            <mxPoint x="500" y="620" as="targetPoint" />
          </mxGeometry>
        </mxCell>
        <mxCell id="M3dNTcdWX4ZVkyAugn2l-200" value="Sends post id" style="text;html=1;align=center;verticalAlign=middle;resizable=0;points=[];autosize=1;strokeColor=none;fillColor=none;" parent="1" vertex="1">
          <mxGeometry x="300" y="580" width="100" height="30" as="geometry" />
        </mxCell>
        <mxCell id="M3dNTcdWX4ZVkyAugn2l-201" value="Sends post id" style="text;html=1;align=center;verticalAlign=middle;resizable=0;points=[];autosize=1;strokeColor=none;fillColor=none;" parent="1" vertex="1">
          <mxGeometry x="390" y="580" width="100" height="30" as="geometry" />
        </mxCell>
        <mxCell id="M3dNTcdWX4ZVkyAugn2l-202" value="Sends post id &lt;br&gt;and user id" style="text;html=1;align=center;verticalAlign=middle;resizable=0;points=[];autosize=1;strokeColor=none;fillColor=none;" parent="1" vertex="1">
          <mxGeometry x="330" y="870" width="100" height="40" as="geometry" />
        </mxCell>
        <mxCell id="M3dNTcdWX4ZVkyAugn2l-203" value="Sends post id&amp;nbsp;&lt;br&gt;and user id" style="text;html=1;align=center;verticalAlign=middle;resizable=0;points=[];autosize=1;strokeColor=none;fillColor=none;" parent="1" vertex="1">
          <mxGeometry x="450" y="870" width="100" height="40" as="geometry" />
        </mxCell>
        <mxCell id="M3dNTcdWX4ZVkyAugn2l-205" value="" style="endArrow=classic;html=1;rounded=0;entryX=0.307;entryY=0.975;entryDx=0;entryDy=0;entryPerimeter=0;exitX=0.653;exitY=-0.038;exitDx=0;exitDy=0;exitPerimeter=0;" parent="1" source="M3dNTcdWX4ZVkyAugn2l-195" target="M3dNTcdWX4ZVkyAugn2l-175" edge="1">
          <mxGeometry width="50" height="50" relative="1" as="geometry">
            <mxPoint x="410" y="870" as="sourcePoint" />
            <mxPoint x="460" y="820" as="targetPoint" />
          </mxGeometry>
        </mxCell>
        <mxCell id="M3dNTcdWX4ZVkyAugn2l-206" value="" style="endArrow=classic;html=1;rounded=0;entryX=0.682;entryY=1.02;entryDx=0;entryDy=0;entryPerimeter=0;exitX=0.5;exitY=0;exitDx=0;exitDy=0;" parent="1" source="M3dNTcdWX4ZVkyAugn2l-185" target="M3dNTcdWX4ZVkyAugn2l-175" edge="1">
          <mxGeometry width="50" height="50" relative="1" as="geometry">
            <mxPoint x="410" y="870" as="sourcePoint" />
            <mxPoint x="460" y="820" as="targetPoint" />
          </mxGeometry>
        </mxCell>
        <mxCell id="M3dNTcdWX4ZVkyAugn2l-207" value="Returns &lt;br&gt;Likes&amp;nbsp;" style="text;html=1;align=center;verticalAlign=middle;resizable=0;points=[];autosize=1;strokeColor=none;fillColor=none;" parent="1" vertex="1">
          <mxGeometry x="520" y="825" width="70" height="40" as="geometry" />
        </mxCell>
        <mxCell id="M3dNTcdWX4ZVkyAugn2l-208" value="Return &lt;br&gt;Comments" style="text;html=1;align=center;verticalAlign=middle;resizable=0;points=[];autosize=1;strokeColor=none;fillColor=none;" parent="1" vertex="1">
          <mxGeometry x="260" y="825" width="80" height="40" as="geometry" />
        </mxCell>
        <mxCell id="M3dNTcdWX4ZVkyAugn2l-209" value="" style="endArrow=classic;html=1;rounded=0;exitX=0.374;exitY=1.072;exitDx=0;exitDy=0;exitPerimeter=0;entryX=0.28;entryY=0.074;entryDx=0;entryDy=0;entryPerimeter=0;" parent="1" source="M3dNTcdWX4ZVkyAugn2l-189" target="M3dNTcdWX4ZVkyAugn2l-175" edge="1">
          <mxGeometry width="50" height="50" relative="1" as="geometry">
            <mxPoint x="400" y="690" as="sourcePoint" />
            <mxPoint x="450" y="640" as="targetPoint" />
          </mxGeometry>
        </mxCell>
        <mxCell id="M3dNTcdWX4ZVkyAugn2l-210" value="" style="endArrow=classic;html=1;rounded=0;exitX=0.61;exitY=1.01;exitDx=0;exitDy=0;exitPerimeter=0;entryX=0.629;entryY=0.038;entryDx=0;entryDy=0;entryPerimeter=0;" parent="1" source="M3dNTcdWX4ZVkyAugn2l-193" target="M3dNTcdWX4ZVkyAugn2l-175" edge="1">
          <mxGeometry width="50" height="50" relative="1" as="geometry">
            <mxPoint x="277" y="580" as="sourcePoint" />
            <mxPoint x="402" y="706" as="targetPoint" />
          </mxGeometry>
        </mxCell>
        <mxCell id="M3dNTcdWX4ZVkyAugn2l-211" value="Returns post titike&lt;br&gt;display text&lt;br&gt;actual text&lt;br&gt;" style="text;html=1;align=center;verticalAlign=middle;resizable=0;points=[];autosize=1;strokeColor=none;fillColor=none;" parent="1" vertex="1">
          <mxGeometry x="200" y="603" width="120" height="60" as="geometry" />
        </mxCell>
        <mxCell id="M3dNTcdWX4ZVkyAugn2l-212" value="Returns image&lt;br&gt;" style="text;html=1;align=center;verticalAlign=middle;resizable=0;points=[];autosize=1;strokeColor=none;fillColor=none;" parent="1" vertex="1">
          <mxGeometry x="460" y="623.12" width="100" height="30" as="geometry" />
        </mxCell>
        <mxCell id="M3dNTcdWX4ZVkyAugn2l-213" style="edgeStyle=orthogonalEdgeStyle;rounded=0;orthogonalLoop=1;jettySize=auto;html=1;exitX=1;exitY=1;exitDx=0;exitDy=0;entryX=0.75;entryY=1;entryDx=0;entryDy=0;" parent="1" source="M3dNTcdWX4ZVkyAugn2l-214" target="M3dNTcdWX4ZVkyAugn2l-217" edge="1">
          <mxGeometry relative="1" as="geometry">
            <Array as="points">
              <mxPoint x="458" y="1350.12" />
              <mxPoint x="720" y="1350.12" />
            </Array>
          </mxGeometry>
        </mxCell>
        <mxCell id="M3dNTcdWX4ZVkyAugn2l-214" value="Messages" style="ellipse;whiteSpace=wrap;html=1;aspect=fixed;" parent="1" vertex="1">
          <mxGeometry x="390" y="1270.12" width="80" height="80" as="geometry" />
        </mxCell>
        <mxCell id="M3dNTcdWX4ZVkyAugn2l-215" value="Blogger" style="rounded=0;whiteSpace=wrap;html=1;" parent="1" vertex="1">
          <mxGeometry x="120" y="1295.12" width="80" height="30" as="geometry" />
        </mxCell>
        <mxCell id="M3dNTcdWX4ZVkyAugn2l-216" style="edgeStyle=orthogonalEdgeStyle;rounded=0;orthogonalLoop=1;jettySize=auto;html=1;entryX=1;entryY=0;entryDx=0;entryDy=0;" parent="1" source="M3dNTcdWX4ZVkyAugn2l-217" target="M3dNTcdWX4ZVkyAugn2l-214" edge="1">
          <mxGeometry relative="1" as="geometry">
            <Array as="points">
              <mxPoint x="710" y="1282.12" />
            </Array>
          </mxGeometry>
        </mxCell>
        <mxCell id="M3dNTcdWX4ZVkyAugn2l-217" value="Modderator" style="rounded=0;whiteSpace=wrap;html=1;" parent="1" vertex="1">
          <mxGeometry x="660" y="1295.12" width="80" height="30" as="geometry" />
        </mxCell>
        <mxCell id="M3dNTcdWX4ZVkyAugn2l-218" value="" style="endArrow=classic;html=1;rounded=0;entryX=0;entryY=0;entryDx=0;entryDy=0;exitX=0.376;exitY=0.016;exitDx=0;exitDy=0;exitPerimeter=0;" parent="1" source="M3dNTcdWX4ZVkyAugn2l-215" target="M3dNTcdWX4ZVkyAugn2l-214" edge="1">
          <mxGeometry width="50" height="50" relative="1" as="geometry">
            <mxPoint x="230" y="1290.12" as="sourcePoint" />
            <mxPoint x="500" y="1270.12" as="targetPoint" />
            <Array as="points">
              <mxPoint x="150" y="1280.12" />
            </Array>
          </mxGeometry>
        </mxCell>
        <mxCell id="M3dNTcdWX4ZVkyAugn2l-219" value="Send Message" style="edgeLabel;html=1;align=center;verticalAlign=middle;resizable=0;points=[];" parent="M3dNTcdWX4ZVkyAugn2l-218" vertex="1" connectable="0">
          <mxGeometry x="0.0843" y="-1" relative="1" as="geometry">
            <mxPoint x="1" y="-12" as="offset" />
          </mxGeometry>
        </mxCell>
        <mxCell id="M3dNTcdWX4ZVkyAugn2l-220" value="" style="endArrow=classic;html=1;rounded=0;entryX=0.375;entryY=1;entryDx=0;entryDy=0;entryPerimeter=0;exitX=0;exitY=1;exitDx=0;exitDy=0;" parent="1" source="M3dNTcdWX4ZVkyAugn2l-214" target="M3dNTcdWX4ZVkyAugn2l-215" edge="1">
          <mxGeometry width="50" height="50" relative="1" as="geometry">
            <mxPoint x="393.01287606101005" y="1325.1199922101723" as="sourcePoint" />
            <mxPoint x="260" y="1379.8899999999999" as="targetPoint" />
            <Array as="points">
              <mxPoint x="402" y="1350.12" />
              <mxPoint x="150" y="1350.12" />
            </Array>
          </mxGeometry>
        </mxCell>
        <mxCell id="M3dNTcdWX4ZVkyAugn2l-221" value="Returns all Messages&lt;br&gt;sent to user id" style="edgeLabel;html=1;align=center;verticalAlign=middle;resizable=0;points=[];" parent="M3dNTcdWX4ZVkyAugn2l-220" vertex="1" connectable="0">
          <mxGeometry x="-0.3115" y="-1" relative="1" as="geometry">
            <mxPoint x="-46" y="18" as="offset" />
          </mxGeometry>
        </mxCell>
        <mxCell id="M3dNTcdWX4ZVkyAugn2l-222" value="Provides Comment" style="edgeLabel;html=1;align=center;verticalAlign=middle;resizable=0;points=[];" parent="1" vertex="1" connectable="0">
          <mxGeometry x="580.0012552593071" y="1270.1238801984323" as="geometry" />
        </mxCell>
        <mxCell id="M3dNTcdWX4ZVkyAugn2l-224" value="Level 1 DFD to &lt;br&gt;message in System" style="text;html=1;align=center;verticalAlign=middle;resizable=0;points=[];autosize=1;strokeColor=none;fillColor=none;" parent="1" vertex="1">
          <mxGeometry x="370" y="1380.12" width="130" height="40" as="geometry" />
        </mxCell>
        <mxCell id="M3dNTcdWX4ZVkyAugn2l-225" value="messages" style="html=1;dashed=0;whiteSpace=wrap;shape=partialRectangle;right=0;left=0;" parent="1" vertex="1">
          <mxGeometry x="380" y="1100" width="100" height="30" as="geometry" />
        </mxCell>
        <mxCell id="M3dNTcdWX4ZVkyAugn2l-226" value="" style="endArrow=classic;html=1;rounded=0;entryX=0.395;entryY=1.006;entryDx=0;entryDy=0;entryPerimeter=0;" parent="1" target="M3dNTcdWX4ZVkyAugn2l-225" edge="1">
          <mxGeometry width="50" height="50" relative="1" as="geometry">
            <mxPoint x="420" y="1270" as="sourcePoint" />
            <mxPoint x="390" y="1190" as="targetPoint" />
          </mxGeometry>
        </mxCell>
        <mxCell id="M3dNTcdWX4ZVkyAugn2l-227" value="Stores sender id,reciver id&lt;br&gt;and message" style="edgeLabel;html=1;align=center;verticalAlign=middle;resizable=0;points=[];" parent="M3dNTcdWX4ZVkyAugn2l-226" vertex="1" connectable="0">
          <mxGeometry x="0.442" y="-2" relative="1" as="geometry">
            <mxPoint x="-92" y="11" as="offset" />
          </mxGeometry>
        </mxCell>
        <mxCell id="M3dNTcdWX4ZVkyAugn2l-228" value="Returns all Messages&lt;br&gt;sent to user id" style="text;html=1;align=center;verticalAlign=middle;resizable=0;points=[];autosize=1;strokeColor=none;fillColor=none;" parent="1" vertex="1">
          <mxGeometry x="540" y="1350.12" width="140" height="40" as="geometry" />
        </mxCell>
        <mxCell id="M3dNTcdWX4ZVkyAugn2l-229" value="" style="endArrow=classic;html=1;rounded=0;exitX=0.656;exitY=1.055;exitDx=0;exitDy=0;exitPerimeter=0;entryX=0.691;entryY=0.042;entryDx=0;entryDy=0;entryPerimeter=0;" parent="1" source="M3dNTcdWX4ZVkyAugn2l-225" target="M3dNTcdWX4ZVkyAugn2l-214" edge="1">
          <mxGeometry width="50" height="50" relative="1" as="geometry">
            <mxPoint x="430" y="1240" as="sourcePoint" />
            <mxPoint x="450" y="1270" as="targetPoint" />
          </mxGeometry>
        </mxCell>
        <mxCell id="M3dNTcdWX4ZVkyAugn2l-231" value="Returns &lt;br&gt;all messages" style="text;html=1;align=center;verticalAlign=middle;resizable=0;points=[];autosize=1;strokeColor=none;fillColor=none;" parent="1" vertex="1">
          <mxGeometry x="455" y="1160" width="90" height="40" as="geometry" />
        </mxCell>
        <mxCell id="M3dNTcdWX4ZVkyAugn2l-232" style="edgeStyle=orthogonalEdgeStyle;rounded=0;orthogonalLoop=1;jettySize=auto;html=1;exitX=1;exitY=1;exitDx=0;exitDy=0;entryX=0.75;entryY=1;entryDx=0;entryDy=0;" parent="1" source="M3dNTcdWX4ZVkyAugn2l-233" target="M3dNTcdWX4ZVkyAugn2l-236" edge="1">
          <mxGeometry relative="1" as="geometry">
            <Array as="points">
              <mxPoint x="453" y="1720.12" />
              <mxPoint x="715" y="1720.12" />
            </Array>
          </mxGeometry>
        </mxCell>
        <mxCell id="M3dNTcdWX4ZVkyAugn2l-233" value="Follower" style="ellipse;whiteSpace=wrap;html=1;aspect=fixed;" parent="1" vertex="1">
          <mxGeometry x="385" y="1640.12" width="80" height="80" as="geometry" />
        </mxCell>
        <mxCell id="M3dNTcdWX4ZVkyAugn2l-234" value="Blogger" style="rounded=0;whiteSpace=wrap;html=1;" parent="1" vertex="1">
          <mxGeometry x="115" y="1665.12" width="80" height="30" as="geometry" />
        </mxCell>
        <mxCell id="M3dNTcdWX4ZVkyAugn2l-235" style="edgeStyle=orthogonalEdgeStyle;rounded=0;orthogonalLoop=1;jettySize=auto;html=1;entryX=1;entryY=0;entryDx=0;entryDy=0;" parent="1" source="M3dNTcdWX4ZVkyAugn2l-236" target="M3dNTcdWX4ZVkyAugn2l-233" edge="1">
          <mxGeometry relative="1" as="geometry">
            <Array as="points">
              <mxPoint x="705" y="1652.12" />
            </Array>
          </mxGeometry>
        </mxCell>
        <mxCell id="M3dNTcdWX4ZVkyAugn2l-236" value="Modderator" style="rounded=0;whiteSpace=wrap;html=1;" parent="1" vertex="1">
          <mxGeometry x="655" y="1665.12" width="80" height="30" as="geometry" />
        </mxCell>
        <mxCell id="M3dNTcdWX4ZVkyAugn2l-237" value="" style="endArrow=classic;html=1;rounded=0;entryX=0;entryY=0;entryDx=0;entryDy=0;exitX=0.376;exitY=0.016;exitDx=0;exitDy=0;exitPerimeter=0;" parent="1" source="M3dNTcdWX4ZVkyAugn2l-234" target="M3dNTcdWX4ZVkyAugn2l-233" edge="1">
          <mxGeometry width="50" height="50" relative="1" as="geometry">
            <mxPoint x="225" y="1660.12" as="sourcePoint" />
            <mxPoint x="495" y="1640.12" as="targetPoint" />
            <Array as="points">
              <mxPoint x="145" y="1650.12" />
            </Array>
          </mxGeometry>
        </mxCell>
        <mxCell id="M3dNTcdWX4ZVkyAugn2l-238" value="Send Follow" style="edgeLabel;html=1;align=center;verticalAlign=middle;resizable=0;points=[];" parent="M3dNTcdWX4ZVkyAugn2l-237" vertex="1" connectable="0">
          <mxGeometry x="0.0843" y="-1" relative="1" as="geometry">
            <mxPoint x="1" y="-12" as="offset" />
          </mxGeometry>
        </mxCell>
        <mxCell id="M3dNTcdWX4ZVkyAugn2l-239" value="" style="endArrow=classic;html=1;rounded=0;entryX=0.375;entryY=1;entryDx=0;entryDy=0;entryPerimeter=0;exitX=0;exitY=1;exitDx=0;exitDy=0;" parent="1" source="M3dNTcdWX4ZVkyAugn2l-233" target="M3dNTcdWX4ZVkyAugn2l-234" edge="1">
          <mxGeometry width="50" height="50" relative="1" as="geometry">
            <mxPoint x="388.01287606101005" y="1695.1199922101723" as="sourcePoint" />
            <mxPoint x="255" y="1749.8899999999999" as="targetPoint" />
            <Array as="points">
              <mxPoint x="397" y="1720.12" />
              <mxPoint x="145" y="1720.12" />
            </Array>
          </mxGeometry>
        </mxCell>
        <mxCell id="M3dNTcdWX4ZVkyAugn2l-240" value="Returns all posts of followed people" style="edgeLabel;html=1;align=center;verticalAlign=middle;resizable=0;points=[];" parent="M3dNTcdWX4ZVkyAugn2l-239" vertex="1" connectable="0">
          <mxGeometry x="-0.3115" y="-1" relative="1" as="geometry">
            <mxPoint x="-46" y="18" as="offset" />
          </mxGeometry>
        </mxCell>
        <mxCell id="M3dNTcdWX4ZVkyAugn2l-241" value="Send Follow" style="edgeLabel;html=1;align=center;verticalAlign=middle;resizable=0;points=[];" parent="1" vertex="1" connectable="0">
          <mxGeometry x="575.0012552593071" y="1640.1238801984323" as="geometry" />
        </mxCell>
        <mxCell id="M3dNTcdWX4ZVkyAugn2l-242" value="Level 1 DFD to &lt;br&gt;add followers in System" style="text;html=1;align=center;verticalAlign=middle;resizable=0;points=[];autosize=1;strokeColor=none;fillColor=none;" parent="1" vertex="1">
          <mxGeometry x="355" y="1750.12" width="150" height="40" as="geometry" />
        </mxCell>
        <mxCell id="M3dNTcdWX4ZVkyAugn2l-243" value="follow" style="html=1;dashed=0;whiteSpace=wrap;shape=partialRectangle;right=0;left=0;" parent="1" vertex="1">
          <mxGeometry x="375" y="1470" width="100" height="30" as="geometry" />
        </mxCell>
        <mxCell id="M3dNTcdWX4ZVkyAugn2l-244" value="" style="endArrow=classic;html=1;rounded=0;entryX=0.5;entryY=1;entryDx=0;entryDy=0;exitX=0.5;exitY=0;exitDx=0;exitDy=0;" parent="1" source="M3dNTcdWX4ZVkyAugn2l-233" target="M3dNTcdWX4ZVkyAugn2l-243" edge="1">
          <mxGeometry width="50" height="50" relative="1" as="geometry">
            <mxPoint x="415" y="1640" as="sourcePoint" />
            <mxPoint x="385" y="1560" as="targetPoint" />
          </mxGeometry>
        </mxCell>
        <mxCell id="M3dNTcdWX4ZVkyAugn2l-245" value="Stores user id,followed id" style="edgeLabel;html=1;align=center;verticalAlign=middle;resizable=0;points=[];" parent="M3dNTcdWX4ZVkyAugn2l-244" vertex="1" connectable="0">
          <mxGeometry x="0.442" y="-2" relative="1" as="geometry">
            <mxPoint x="-67" y="14" as="offset" />
          </mxGeometry>
        </mxCell>
        <mxCell id="M3dNTcdWX4ZVkyAugn2l-266" value="&lt;span style=&quot;color: rgb(240, 240, 240); font-family: Helvetica; font-size: 11px; font-style: normal; font-variant-ligatures: normal; font-variant-caps: normal; font-weight: 400; letter-spacing: normal; orphans: 2; text-align: center; text-indent: 0px; text-transform: none; widows: 2; word-spacing: 0px; -webkit-text-stroke-width: 0px; background-color: rgb(24, 20, 29); text-decoration-thickness: initial; text-decoration-style: initial; text-decoration-color: initial; float: none; display: inline !important;&quot;&gt;Returns all posts of followed people&lt;/span&gt;" style="text;whiteSpace=wrap;html=1;" parent="1" vertex="1">
          <mxGeometry x="505" y="1730" width="210" height="40" as="geometry" />
        </mxCell>
        <mxCell id="tYfofC7_f7FlZTquDfAh-15" style="edgeStyle=orthogonalEdgeStyle;rounded=0;orthogonalLoop=1;jettySize=auto;html=1;exitX=1;exitY=1;exitDx=0;exitDy=0;entryX=0.75;entryY=1;entryDx=0;entryDy=0;" parent="1" source="tYfofC7_f7FlZTquDfAh-16" target="tYfofC7_f7FlZTquDfAh-19" edge="1">
          <mxGeometry relative="1" as="geometry">
            <Array as="points">
              <mxPoint x="-462" y="1870.12" />
              <mxPoint x="-200" y="1870.12" />
            </Array>
          </mxGeometry>
        </mxCell>
        <mxCell id="tYfofC7_f7FlZTquDfAh-35" style="edgeStyle=orthogonalEdgeStyle;rounded=0;orthogonalLoop=1;jettySize=auto;html=1;entryX=0.38;entryY=1.085;entryDx=0;entryDy=0;entryPerimeter=0;" parent="1" source="tYfofC7_f7FlZTquDfAh-16" target="tYfofC7_f7FlZTquDfAh-27" edge="1">
          <mxGeometry relative="1" as="geometry">
            <Array as="points">
              <mxPoint x="-502" y="1760" />
              <mxPoint x="-502" y="1760" />
            </Array>
          </mxGeometry>
        </mxCell>
        <mxCell id="tYfofC7_f7FlZTquDfAh-36" value="Updates related&amp;nbsp;&lt;br&gt;information" style="edgeLabel;html=1;align=center;verticalAlign=middle;resizable=0;points=[];" parent="tYfofC7_f7FlZTquDfAh-35" vertex="1" connectable="0">
          <mxGeometry x="0.3993" y="1" relative="1" as="geometry">
            <mxPoint x="43" y="-18" as="offset" />
          </mxGeometry>
        </mxCell>
        <mxCell id="tYfofC7_f7FlZTquDfAh-16" value="Comment" style="ellipse;whiteSpace=wrap;html=1;aspect=fixed;" parent="1" vertex="1">
          <mxGeometry x="-530" y="1790.12" width="80" height="80" as="geometry" />
        </mxCell>
        <mxCell id="tYfofC7_f7FlZTquDfAh-33" style="edgeStyle=orthogonalEdgeStyle;rounded=0;orthogonalLoop=1;jettySize=auto;html=1;entryX=0;entryY=0.5;entryDx=0;entryDy=0;" parent="1" source="tYfofC7_f7FlZTquDfAh-17" target="tYfofC7_f7FlZTquDfAh-16" edge="1">
          <mxGeometry relative="1" as="geometry" />
        </mxCell>
        <mxCell id="tYfofC7_f7FlZTquDfAh-34" value="Updates information&lt;br&gt;" style="edgeLabel;html=1;align=center;verticalAlign=middle;resizable=0;points=[];" parent="tYfofC7_f7FlZTquDfAh-33" vertex="1" connectable="0">
          <mxGeometry x="-0.2491" y="2" relative="1" as="geometry">
            <mxPoint y="12" as="offset" />
          </mxGeometry>
        </mxCell>
        <mxCell id="tYfofC7_f7FlZTquDfAh-17" value="Blogger" style="rounded=0;whiteSpace=wrap;html=1;" parent="1" vertex="1">
          <mxGeometry x="-800" y="1815.12" width="80" height="30" as="geometry" />
        </mxCell>
        <mxCell id="tYfofC7_f7FlZTquDfAh-18" style="edgeStyle=orthogonalEdgeStyle;rounded=0;orthogonalLoop=1;jettySize=auto;html=1;entryX=1;entryY=0;entryDx=0;entryDy=0;" parent="1" source="tYfofC7_f7FlZTquDfAh-19" target="tYfofC7_f7FlZTquDfAh-16" edge="1">
          <mxGeometry relative="1" as="geometry">
            <Array as="points">
              <mxPoint x="-210" y="1802.12" />
            </Array>
          </mxGeometry>
        </mxCell>
        <mxCell id="tYfofC7_f7FlZTquDfAh-19" value="Modderator" style="rounded=0;whiteSpace=wrap;html=1;" parent="1" vertex="1">
          <mxGeometry x="-260" y="1815.12" width="80" height="30" as="geometry" />
        </mxCell>
        <mxCell id="tYfofC7_f7FlZTquDfAh-20" value="" style="endArrow=classic;html=1;rounded=0;entryX=0;entryY=0;entryDx=0;entryDy=0;exitX=0.376;exitY=0.016;exitDx=0;exitDy=0;exitPerimeter=0;" parent="1" source="tYfofC7_f7FlZTquDfAh-17" target="tYfofC7_f7FlZTquDfAh-16" edge="1">
          <mxGeometry width="50" height="50" relative="1" as="geometry">
            <mxPoint x="-690" y="1810.12" as="sourcePoint" />
            <mxPoint x="-420" y="1790.12" as="targetPoint" />
            <Array as="points">
              <mxPoint x="-770" y="1800.12" />
            </Array>
          </mxGeometry>
        </mxCell>
        <mxCell id="tYfofC7_f7FlZTquDfAh-21" value="Proivdes Userid" style="edgeLabel;html=1;align=center;verticalAlign=middle;resizable=0;points=[];" parent="tYfofC7_f7FlZTquDfAh-20" vertex="1" connectable="0">
          <mxGeometry x="0.0843" y="-1" relative="1" as="geometry">
            <mxPoint x="1" y="-12" as="offset" />
          </mxGeometry>
        </mxCell>
        <mxCell id="tYfofC7_f7FlZTquDfAh-22" value="" style="endArrow=classic;html=1;rounded=0;entryX=0.375;entryY=1;entryDx=0;entryDy=0;entryPerimeter=0;exitX=0;exitY=1;exitDx=0;exitDy=0;" parent="1" source="tYfofC7_f7FlZTquDfAh-16" target="tYfofC7_f7FlZTquDfAh-17" edge="1">
          <mxGeometry width="50" height="50" relative="1" as="geometry">
            <mxPoint x="-526.98712393899" y="1845.1199922101723" as="sourcePoint" />
            <mxPoint x="-660" y="1899.8899999999999" as="targetPoint" />
            <Array as="points">
              <mxPoint x="-518" y="1870.12" />
              <mxPoint x="-770" y="1870.12" />
            </Array>
          </mxGeometry>
        </mxCell>
        <mxCell id="tYfofC7_f7FlZTquDfAh-23" value="Displays Account information" style="edgeLabel;html=1;align=center;verticalAlign=middle;resizable=0;points=[];" parent="tYfofC7_f7FlZTquDfAh-22" vertex="1" connectable="0">
          <mxGeometry x="-0.3115" y="-1" relative="1" as="geometry">
            <mxPoint x="-46" y="18" as="offset" />
          </mxGeometry>
        </mxCell>
        <mxCell id="tYfofC7_f7FlZTquDfAh-24" value="Proivdes Userid" style="edgeLabel;html=1;align=center;verticalAlign=middle;resizable=0;points=[];" parent="1" vertex="1" connectable="0">
          <mxGeometry x="-339.9987447406929" y="1790.1238801984323" as="geometry" />
        </mxCell>
        <mxCell id="tYfofC7_f7FlZTquDfAh-25" value="Display Account infromation" style="edgeLabel;html=1;align=center;verticalAlign=middle;resizable=0;points=[];" parent="1" vertex="1" connectable="0">
          <mxGeometry x="-310.0008229663862" y="1890.12" as="geometry" />
        </mxCell>
        <mxCell id="tYfofC7_f7FlZTquDfAh-26" value="Level 1 DFD to get &lt;br&gt;account in System" style="text;html=1;align=center;verticalAlign=middle;resizable=0;points=[];autosize=1;strokeColor=none;fillColor=none;" parent="1" vertex="1">
          <mxGeometry x="-550" y="1903.12" width="120" height="40" as="geometry" />
        </mxCell>
        <mxCell id="tYfofC7_f7FlZTquDfAh-37" style="edgeStyle=orthogonalEdgeStyle;rounded=0;orthogonalLoop=1;jettySize=auto;html=1;" parent="1" source="tYfofC7_f7FlZTquDfAh-27" edge="1">
          <mxGeometry relative="1" as="geometry">
            <mxPoint x="-480" y="1790" as="targetPoint" />
            <Array as="points">
              <mxPoint x="-390" y="1640" />
              <mxPoint x="-390" y="1730" />
            </Array>
          </mxGeometry>
        </mxCell>
        <mxCell id="tYfofC7_f7FlZTquDfAh-27" value="Account Table" style="html=1;dashed=0;whiteSpace=wrap;shape=partialRectangle;right=0;left=0;" parent="1" vertex="1">
          <mxGeometry x="-540" y="1625.12" width="100" height="30" as="geometry" />
        </mxCell>
        <mxCell id="tYfofC7_f7FlZTquDfAh-28" value="" style="endArrow=classic;html=1;rounded=0;entryX=0.313;entryY=0.938;entryDx=0;entryDy=0;exitX=0.297;exitY=0.039;exitDx=0;exitDy=0;exitPerimeter=0;entryPerimeter=0;" parent="1" source="tYfofC7_f7FlZTquDfAh-16" target="tYfofC7_f7FlZTquDfAh-27" edge="1">
          <mxGeometry width="50" height="50" relative="1" as="geometry">
            <mxPoint x="-490" y="1790" as="sourcePoint" />
            <mxPoint x="-530" y="1710" as="targetPoint" />
          </mxGeometry>
        </mxCell>
        <mxCell id="tYfofC7_f7FlZTquDfAh-29" value="Requests ussername,email,&lt;br&gt;passeword profile pictuere&lt;br&gt;" style="edgeLabel;html=1;align=center;verticalAlign=middle;resizable=0;points=[];" parent="tYfofC7_f7FlZTquDfAh-28" vertex="1" connectable="0">
          <mxGeometry x="0.442" y="-2" relative="1" as="geometry">
            <mxPoint x="-74" y="18" as="offset" />
          </mxGeometry>
        </mxCell>
        <mxCell id="tYfofC7_f7FlZTquDfAh-32" value="Retrives ussername,email,&lt;br&gt;passeword profile pictuere" style="edgeLabel;html=1;align=center;verticalAlign=middle;resizable=0;points=[];" parent="1" vertex="1" connectable="0">
          <mxGeometry x="-319.9993954008344" y="1710.0004891213014" as="geometry" />
        </mxCell>
      </root>
    </mxGraphModel>
  </diagram>
</mxfile>
